# xmcd
#
# Track frame offsets:
#	150
#	16821
#	33408
#	57031
#	73484
#	91176
#
# Disc length: 1458 seconds
#
# Revision: 1
# Processed by: cddbd v1.5.2PL0 Copyright (c) Steve Scherf et al.
# Submitted via: EasyCDDAExtractor 12.0.1.1
#
DISCID=4605b006
DTITLE=Rodrigo Nézio and Duo Condé - Blues
DYEAR=1900
DGENRE=Blues
TTITLE0=Get yourself a life
TTITLE1=Pride and Joy
TTITLE2=Stop
TTITLE3=Do something
TTITLE4=Hoochie coochie man
TTITLE5=The Jump
EXTD=
EXTT0=
EXTT1=
EXTT2=
EXTT3=
EXTT4=
EXTT5=
PLAYORDER=
